<?xml version="1.0" encoding="UTF-8"?>
<svg width="24" height="24" viewBox="0 0 24 24" fill="none" xmlns="http://www.w3.org/2000/svg">
  <path d="M18 8C19.6569 8 21 6.65685 21 5C21 3.34315 19.6569 2 18 2C16.3431 2 15 3.34315 15 5C15 5.12548 15.0077 5.24917 15.0227 5.37061L8.08261 9.18802C7.54305 8.46461 6.6985 8 5.75 8C4.09315 8 2.75 9.34315 2.75 11C2.75 12.6569 4.09315 14 5.75 14C6.6985 14 7.54305 13.5354 8.08261 12.812L15.0227 16.6294C15.0077 16.7508 15 16.8745 15 17C15 18.6569 16.3431 20 18 20C19.6569 20 21 18.6569 21 17C21 15.3431 19.6569 14 18 14C17.0515 14 16.207 14.4646 15.6674 15.188L8.72732 11.3706C8.74232 11.2492 8.75 11.1255 8.75 11C8.75 10.8745 8.74232 10.7508 8.72732 10.6294L15.6674 6.81198C16.207 7.53539 17.0515 8 18 8Z" stroke="currentColor" stroke-width="2" stroke-linecap="round" stroke-linejoin="round"/>
</svg> 